<svg xmlns="http://www.w3.org/2000/svg" viewBox="0 0 20 20" fill="none">
  <!-- GitHub mark inspired icon for the Software Teams Output node -->
  <circle cx="10" cy="10" r="9" fill="#24292F"/>
  <!-- Simplified octocat head -->
  <path d="M10 4a6 6 0 0 0-1.897 11.693c.3.055.41-.13.41-.288 0-.142-.005-.517-.008-1.015-1.669.363-2.02-.804-2.02-.804-.273-.693-.667-0.878-.667-.878-.545-.373.041-.365.041-.365.603.042.92.619.92.619.536.918 1.407.653 1.75.5.054-.389.21-.653.382-.803-1.333-.152-2.734-.667-2.734-2.966 0-.655.234-1.19.617-1.61-.062-.15-.267-.762.059-1.587 0 0 .503-.161 1.648.614a5.74 5.74 0 0 1 1.5-.202c.509.003 1.021.069 1.5.202 1.144-.775 1.645-.614 1.645-.614.328.825.122 1.437.06 1.587.384.42.616.955.616 1.61 0 2.306-1.404 2.813-2.74 2.96.215.186.407.552.407 1.113 0 .803-.007 1.452-.007 1.65 0 .16.108.347.413.288A6.001 6.001 0 0 0 10 4z" fill="white"/>
</svg>
